<?xml version="1.0" encoding="utf-8"?>
<!-- Generator: Adobe Illustrator 16.0.0, SVG Export Plug-In . SVG Version: 6.00 Build 0)  -->
<!DOCTYPE svg PUBLIC "-//W3C//DTD SVG 1.1//EN" "http://www.w3.org/Graphics/SVG/1.1/DTD/svg11.dtd">
<svg version="1.1" id="Capa_1" xmlns="http://www.w3.org/2000/svg" xmlns:xlink="http://www.w3.org/1999/xlink" x="0px" y="0px"
	 width="190.5px" height="54.25px" viewBox="0 0 190.5 54.25" enable-background="new 0 0 190.5 54.25" xml:space="preserve">
<g>
	<g>
		<path fill="#FFFFFF" d="M76.696,31.553c-4.299-2.113-9.2-5.884-9.2-11.013c0-8.146,4.071-11.465,13.048-11.465
			c6.185,0,9.502,2.565,9.502,2.565l-1.583,5.884l-2.942,0.075c-1.732-0.678-3.846-1.282-5.58-1.282
			c-1.811,0.076-3.395,1.056-3.395,3.243c0,2.037,3.923,3.244,8.523,5.507c4.148,2.036,8.523,5.883,8.523,9.955
			c0,8.222-4.678,13.879-12.295,13.879c-8.372,0-11.917-2.641-14.406-5.808v-1.509l4.072-3.998h0.604
			c3.019,2.413,5.279,3.318,7.92,3.318c3.092,0,4.223-2.111,4.223-4.072C83.71,34.796,81.071,33.74,76.696,31.553z"/>
		<path fill="#FFFFFF" d="M98.569,28.836c0-16.291,3.621-19.761,14.332-19.761c10.71,0,14.332,3.47,14.18,20.592l-6.033,1.206
			h-11.616c0.077,9.73,0.755,10.635,3.47,10.635c9.957,0,13.728-1.056,13.728-1.056v7.241c0,0-3.093,1.207-13.728,1.207
			C102.19,48.9,98.569,43.922,98.569,28.836z M109.432,24.84h7.618c-0.227-6.939-1.131-8.75-1.734-8.75
			c-3.32,0-5.884,1.055-5.884,2.866V24.84z"/>
		<path fill="#FFFFFF" stroke="#FFFFFF" stroke-width="0.3616" stroke-miterlimit="10" d="M131.834,10.207h22.325l1.357,1.358v6.864
			H148.2l0.076,29.265h-7.77l-1.356-1.358V18.429h-5.96l-1.356-1.358V10.207z"/>
		<path fill="#FFFFFF" stroke="#FFFFFF" stroke-width="0.3616" stroke-miterlimit="10" d="M171.462,29.667l-11.917-19.46h8.597
			l1.434,1.433l5.957,9.805l6.111-11.238h6.336l1.357,1.358l-9.879,18.102v18.026h-6.639l-1.357-1.358V29.667z"/>
	</g>
	<g>
		<g>
			<path fill="#FFFFFF" stroke="#FFFFFF" stroke-miterlimit="10" d="M17.529,5.665c0,0.703-0.569,1.271-1.267,1.271
				c-0.699,0-1.267-0.567-1.267-1.271c0-0.696,0.567-1.264,1.267-1.264C16.96,4.401,17.529,4.969,17.529,5.665z"/>
			<path fill="#FFFFFF" stroke="#FFFFFF" stroke-miterlimit="10" d="M24.032,3.508c0,0.701-0.564,1.269-1.268,1.269
				c-0.697,0-1.265-0.568-1.265-1.269c0-0.697,0.567-1.264,1.265-1.264C23.468,2.244,24.032,2.811,24.032,3.508z"/>
			<path fill="#FFFFFF" stroke="#FFFFFF" stroke-miterlimit="10" d="M31.556,3.452c0,0.703-0.569,1.268-1.267,1.268
				c-0.699,0-1.267-0.565-1.267-1.268c0-0.697,0.567-1.264,1.267-1.264C30.986,2.188,31.556,2.755,31.556,3.452z"/>
			<path fill="#FFFFFF" stroke="#FFFFFF" stroke-miterlimit="10" d="M38.154,5.468c0,0.703-0.567,1.271-1.267,1.271
				c-0.701,0-1.267-0.568-1.267-1.271c0-0.696,0.565-1.264,1.267-1.264C37.587,4.204,38.154,4.771,38.154,5.468z"/>
			<circle fill="#FFFFFF" stroke="#FFFFFF" stroke-miterlimit="10" cx="42.467" cy="9.181" r="1.267"/>
			<path fill="#FFFFFF" stroke="#FFFFFF" stroke-miterlimit="10" d="M48.225,13.659c0,0.703-0.567,1.269-1.267,1.269
				c-0.701,0-1.266-0.566-1.266-1.269c0-0.697,0.564-1.266,1.266-1.266C47.657,12.394,48.225,12.962,48.225,13.659z"/>
			<path fill="#FFFFFF" stroke="#FFFFFF" stroke-miterlimit="10" d="M50.749,19.737c0,0.702-0.57,1.27-1.266,1.27
				c-0.705,0-1.27-0.567-1.27-1.27c0-0.695,0.564-1.265,1.27-1.265C50.179,18.472,50.749,19.042,50.749,19.737z"/>
			<path fill="#FFFFFF" stroke="#FFFFFF" stroke-miterlimit="10" d="M52.162,26.262c0,0.703-0.565,1.27-1.269,1.27
				c-0.695,0-1.266-0.567-1.266-1.27c0-0.697,0.57-1.267,1.266-1.267C51.597,24.995,52.162,25.565,52.162,26.262z"/>
			<circle fill="#FFFFFF" stroke="#FFFFFF" stroke-miterlimit="10" cx="50.072" cy="33.178" r="1.267"/>
			<circle fill="#FFFFFF" stroke="#FFFFFF" stroke-miterlimit="10" cx="47.201" cy="39.522" r="1.268"/>
			<path fill="#FFFFFF" stroke="#FFFFFF" stroke-miterlimit="10" d="M44.091,44.779c0,0.702-0.568,1.27-1.267,1.27
				c-0.699,0-1.265-0.567-1.265-1.27c0-0.697,0.565-1.266,1.265-1.266C43.522,43.514,44.091,44.082,44.091,44.779z"/>
			<path fill="#FFFFFF" stroke="#FFFFFF" stroke-miterlimit="10" d="M38.886,48.585c0,0.702-0.568,1.271-1.268,1.271
				s-1.267-0.568-1.267-1.271c0-0.696,0.567-1.265,1.267-1.265S38.886,47.889,38.886,48.585z"/>
			<path fill="#FFFFFF" stroke="#FFFFFF" stroke-miterlimit="10" d="M29.95,50.909c-0.215-0.671,0.15-1.386,0.813-1.601
				c0.665-0.215,1.38,0.148,1.596,0.814c0.218,0.662-0.147,1.379-0.812,1.598C30.882,51.937,30.165,51.567,29.95,50.909z"/>
			<path fill="#FFFFFF" stroke="#FFFFFF" stroke-miterlimit="10" d="M22.95,51.134c-0.218-0.67,0.146-1.385,0.812-1.599
				c0.664-0.217,1.38,0.146,1.596,0.812c0.215,0.666-0.148,1.381-0.812,1.599C23.88,52.16,23.163,51.795,22.95,51.134z"/>
			<path fill="#FFFFFF" stroke="#FFFFFF" stroke-miterlimit="10" d="M16.043,49.342c-0.22-0.669,0.146-1.383,0.812-1.601
				c0.663-0.214,1.381,0.146,1.597,0.816c0.218,0.661-0.148,1.378-0.813,1.595C16.973,50.367,16.257,50.001,16.043,49.342z"/>
			<path fill="#FFFFFF" stroke="#FFFFFF" stroke-miterlimit="10" d="M10.22,45.631c-0.215-0.668,0.15-1.382,0.814-1.597
				c0.664-0.217,1.377,0.146,1.596,0.812c0.216,0.664-0.148,1.382-0.812,1.598C11.151,46.657,10.438,46.295,10.22,45.631z"/>
			<path fill="#FFFFFF" stroke="#FFFFFF" stroke-miterlimit="10" d="M5.702,40.645c-0.217-0.668,0.147-1.384,0.811-1.598
				c0.668-0.217,1.381,0.148,1.599,0.818c0.216,0.658-0.149,1.375-0.815,1.594C6.631,41.673,5.918,41.309,5.702,40.645z"/>
			<path fill="#FFFFFF" stroke="#FFFFFF" stroke-miterlimit="10" d="M2.536,34.324c-0.217-0.67,0.148-1.383,0.813-1.598
				c0.664-0.217,1.38,0.149,1.599,0.815c0.213,0.663-0.151,1.38-0.815,1.595C3.467,35.354,2.753,34.989,2.536,34.324z"/>
			<path fill="#FFFFFF" stroke="#FFFFFF" stroke-miterlimit="10" d="M1.692,27.577c-0.221-0.669,0.147-1.383,0.81-1.597
				c0.666-0.218,1.382,0.148,1.599,0.818c0.213,0.66-0.148,1.378-0.812,1.591C2.622,28.607,1.907,28.24,1.692,27.577z"/>
			<path fill="#FFFFFF" stroke="#FFFFFF" stroke-miterlimit="10" d="M2.63,20.741c-0.219-0.668,0.146-1.386,0.81-1.599
				c0.669-0.218,1.382,0.145,1.599,0.813c0.213,0.661-0.148,1.378-0.814,1.598C3.559,21.768,2.844,21.4,2.63,20.741z"/>
			<path fill="#FFFFFF" stroke="#FFFFFF" stroke-miterlimit="10" d="M5.485,14.815c-0.217-0.671,0.146-1.386,0.811-1.602
				c0.668-0.214,1.382,0.149,1.6,0.82c0.214,0.661-0.148,1.379-0.813,1.593C6.417,15.845,5.702,15.478,5.485,14.815z"/>
			<path fill="#FFFFFF" stroke="#FFFFFF" stroke-miterlimit="10" d="M9.763,9.709C9.547,9.04,9.911,8.327,10.575,8.112
				c0.664-0.217,1.379,0.148,1.598,0.815c0.213,0.665-0.15,1.377-0.814,1.596C10.69,10.739,9.979,10.372,9.763,9.709z"/>
		</g>
		<g>
			<circle fill="#C7C6C5" stroke="#C7C6C5" stroke-width="0.7294" stroke-miterlimit="10" cx="17.69" cy="14.596" r="1.266"/>
			<circle fill="#C7C6C5" stroke="#C7C6C5" stroke-width="0.7294" stroke-miterlimit="10" cx="23.023" cy="11.904" r="1.266"/>
			<path fill="#C7C6C5" stroke="#C7C6C5" stroke-width="0.7294" stroke-miterlimit="10" d="M36.038,13.27
				c0,0.704-0.565,1.271-1.265,1.271s-1.267-0.567-1.267-1.271c0-0.695,0.567-1.264,1.267-1.264S36.038,12.575,36.038,13.27z"/>
			<path fill="#C7C6C5" stroke="#C7C6C5" stroke-width="0.7294" stroke-miterlimit="10" d="M40.916,16.968
				c0,0.705-0.57,1.272-1.271,1.272c-0.699,0-1.264-0.567-1.264-1.272c0-0.693,0.564-1.265,1.264-1.265
				C40.346,15.703,40.916,16.274,40.916,16.968z"/>
			<path fill="#C7C6C5" stroke="#C7C6C5" stroke-width="0.7294" stroke-miterlimit="10" d="M43.873,22.428
				c0,0.702-0.566,1.271-1.266,1.271s-1.265-0.569-1.265-1.271c0-0.697,0.565-1.267,1.265-1.267S43.873,21.731,43.873,22.428z"/>
			<path fill="#C7C6C5" stroke="#C7C6C5" stroke-width="0.7294" stroke-miterlimit="10" d="M44.582,28.452
				c0,0.698-0.568,1.27-1.268,1.27s-1.268-0.571-1.268-1.27c0-0.697,0.568-1.266,1.268-1.266S44.582,27.755,44.582,28.452z"/>
			<path fill="#C7C6C5" stroke="#C7C6C5" stroke-width="0.7294" stroke-miterlimit="10" d="M43,34.75
				c0,0.705-0.569,1.271-1.267,1.271c-0.7,0-1.267-0.565-1.267-1.271c0-0.697,0.566-1.265,1.267-1.265
				C42.431,33.485,43,34.053,43,34.75z"/>
			<path fill="#C7C6C5" stroke="#C7C6C5" stroke-width="0.7294" stroke-miterlimit="10" d="M38.787,39.771
				c0,0.703-0.567,1.27-1.265,1.27c-0.701,0-1.27-0.566-1.27-1.27c0-0.694,0.568-1.264,1.27-1.264
				C38.22,38.508,38.787,39.077,38.787,39.771z"/>
			<path fill="#C7C6C5" stroke="#C7C6C5" stroke-width="0.7294" stroke-miterlimit="10" d="M32.582,42.886
				c0,0.704-0.567,1.271-1.265,1.271c-0.701,0-1.27-0.566-1.27-1.271c0-0.695,0.568-1.265,1.27-1.265
				C32.015,41.621,32.582,42.19,32.582,42.886z"/>
			<path fill="#C7C6C5" stroke="#C7C6C5" stroke-width="0.7294" stroke-miterlimit="10" d="M25.958,43.137
				c0,0.703-0.568,1.27-1.268,1.27s-1.267-0.566-1.267-1.27c0-0.696,0.567-1.266,1.267-1.266S25.958,42.44,25.958,43.137z"/>
			<path fill="#C7C6C5" stroke="#C7C6C5" stroke-width="0.7294" stroke-miterlimit="10" d="M20.515,41.209
				c0,0.703-0.566,1.27-1.266,1.27s-1.268-0.566-1.268-1.27c0-0.697,0.568-1.266,1.268-1.266S20.515,40.512,20.515,41.209z"/>
			<path fill="#C7C6C5" stroke="#C7C6C5" stroke-width="0.7294" stroke-miterlimit="10" d="M15.832,37.152
				c0,0.705-0.567,1.271-1.267,1.271c-0.7,0-1.265-0.566-1.265-1.271c0-0.695,0.564-1.264,1.265-1.264
				C15.265,35.889,15.832,36.457,15.832,37.152z"/>
			<circle fill="#C7C6C5" stroke="#C7C6C5" stroke-width="0.7294" stroke-miterlimit="10" cx="11.722" cy="31.477" r="1.268"/>
			<path fill="#C7C6C5" stroke="#C7C6C5" stroke-width="0.7294" stroke-miterlimit="10" d="M12.771,25.153
				c0,0.702-0.569,1.27-1.267,1.27c-0.698,0-1.269-0.567-1.269-1.27c0-0.697,0.57-1.265,1.269-1.265
				C12.201,23.888,12.771,24.457,12.771,25.153z"/>
			<path fill="#C7C6C5" stroke="#C7C6C5" stroke-width="0.7294" stroke-miterlimit="10" d="M14.94,19.222
				c0,0.704-0.565,1.271-1.267,1.271c-0.697,0-1.267-0.567-1.267-1.271c0-0.695,0.569-1.265,1.267-1.265
				C14.375,17.957,14.94,18.527,14.94,19.222z"/>
			<path fill="#C7C6C5" stroke="#C7C6C5" stroke-width="0.7294" stroke-miterlimit="10" d="M30.5,11.513
				c0,0.701-0.57,1.268-1.27,1.268c-0.697,0-1.266-0.566-1.266-1.268c0-0.698,0.568-1.265,1.266-1.265
				C29.93,10.248,30.5,10.814,30.5,11.513z"/>
		</g>
	</g>
</g>
</svg>
